PathFileType	4	(X/Y/Z)	Kaydara																																																																																																																									
DataRate	CameraRate	NumFrames	NumMarkers	Units	OrigDataRate	OrigDataStartFrame	OrigNumFrames																																																																																																																					
30	30	4	41	mm	30	112	266																																																																																																																					
Frame#	Time	SALE_LFHD			SALE_RFHD			SALE_LBHD			SALE_RBHD			SALE_LFTShould			SALE_RFTShould			SALE_LRRShould			SALE_RRRShould			SALE_T10			SALE_STRN			SALE_TRUN			SALE_LSHO			SALE_LUPA			SALE_LELB			SALE_LFRM			SALE_LWRA			SALE_LWRB			SALE_LFIN			SALE_RSHO			SALE_RUPA			SALE_RELB			SALE_RFRM			SALE_RWRB			SALE_RFIN			SALE_LFWT			SALE_RFWT			SALE_LBWT			SALE_RBWT			SALE_LTHI			SALE_LKNE			SALE_RWRA			SALE_LSHN			SALE_LANK			SALE_LHEE			SALE_LTOE			SALE_RTHI			SALE_RKNE			SALE_RSHN			SALE_RANK			SALE_RHEE			SALE_RTOE		
		X1	Y1	Z1	X2	Y2	Z2	X3	Y3	Z3	X4	Y4	Z4	X5	Y5	Z5	X6	Y6	Z6	X7	Y7	Z7	X8	Y8	Z8	X9	Y9	Z9	X10	Y10	Z10	X11	Y11	Z11	X12	Y12	Z12	X13	Y13	Z13	X14	Y14	Z14	X15	Y15	Z15	X16	Y16	Z16	X17	Y17	Z17	X18	Y18	Z18	X19	Y19	Z19	X20	Y20	Z20	X21	Y21	Z21	X22	Y22	Z22	X23	Y23	Z23	X24	Y24	Z24	X25	Y25	Z25	X26	Y26	Z26	X27	Y27	Z27	X28	Y28	Z28	X29	Y29	Z29	X30	Y30	Z30	X31	Y31	Z31	X32	Y32	Z32	X33	Y33	Z33	X34	Y34	Z34	X35	Y35	Z35	X36	Y36	Z36	X37	Y37	Z37	X38	Y38	Z38	X39	Y39	Z39	X40	Y40	Z40	X41	Y41	Z41
																																																																																																																												
67	3.7	259.40399	1613.31116	-1665.49118	128.27654	1601.99875	-1676.49414	267.09747	1615.51987	-1797.05643	141.92487	1602.89032	-1801.10992	289.89828	1350.06592	-1743.39066	149.03173	1349.7348	-1735.811	280.24593	1420.86914	-1848.25562	128.60239	1427.24884	-1831.48071	197.06175	1279.29932	-1926.81595	217.41955	1273.04588	-1700.93964	216.17699	1182.79457	-1670.49957	402.50801	1380.5452	-1812.63962	443.50891	1164.4088	-1836.14868	430.65727	1055.84801	-1860.52307	462.36942	950.84793	-1838.07083	403.36498	807.36153	-1779.45999	469.25945	804.2112	-1818.81348	467.9348	759.15909	-1772.5441	38.14948	1388.23441	-1786.51932	0.87377	1165.2002	-1868.97308	-30.0309	1063.66806	-1836.77933	-23.02031	951.45332	-1856.82785	-48.69701	810.80994	-1823.80569	-65.48766	766.2529	-1775.76614	333.47801	946.28128	-1745.53345	55.36124	959.0892	-1740.26337	272.68509	1011.4447	-1909.88251	92.64102	1019.17404	-1911.53854	308.46563	686.86478	-1967.06284	304.64451	502.5119	-1940.61066	-13.36826	817.54227	-1761.3974	295.5415	311.54297	-2003.51028	283.67733	148.99457	-2103.59665	242.87209	114.85835	-2175.83694	257.35357	83.63598	-1984.08737	34.87197	691.68381	-1849.50027	65.8431	557.58736	-1707.89261	121.93667	374.3121	-1681.40854	81.8976	119.25671	-1665.88776	94.26965	76.53832	-1538.91586	131.31655	57.15573	-1726.5593
68	3.733	253.927	1617.61856	-1649.80896	123.68562	1605.24979	-1658.73581	259.6332	1620.10101	-1781.39572	134.52888	1606.6893	-1783.74634	284.97551	1355.39215	-1726.19492	143.98982	1354.60648	-1718.60611	274.73207	1423.82004	-1832.50122	123.40471	1429.77493	-1815.90057	192.61147	1280.23407	-1908.20724	212.45359	1278.95851	-1682.38937	211.55096	1189.45335	-1649.94064	397.23507	1385.40436	-1796.45065	437.12257	1169.17114	-1819.00177	423.49098	1060.41656	-1841.54968	455.26932	955.27817	-1817.65259	396.58829	813.0629	-1755.55038	461.57619	808.58131	-1796.42639	461.24908	764.77608	-1749.10553	33.17383	1391.72287	-1770.45807	-4.30563	1167.75818	-1848.44147	-35.07721	1066.76956	-1814.27597	-28.59559	954.35936	-1832.82547	-54.64019	814.18633	-1797.64099	-69.67384	770.04356	-1748.56949	328.14266	948.46626	-1721.60141	49.40926	964.54704	-1717.24335	269.30258	1013.62816	-1886.27731	89.74655	1023.69148	-1888.32474	301.86352	689.56223	-1943.7825	300.48512	505.16041	-1919.38629	-16.9443	821.3224	-1736.5947	293.41173	315.62864	-1989.64523	283.79827	157.27478	-2096.27182	243.50481	126.87633	-2169.98672	257.30522	82.919	-1980.90851	27.95235	697.39502	-1828.68088	62.63019	560.96779	-1694.99496	118.40625	375.00084	-1674.21936	80.53053	117.77694	-1666.51108	92.1478	75.278	-1538.83713	130.6089	57.35466	-1726.42639
69	3.767	248.32338	1622.25235	-1633.99963	118.31009	1608.6142	-1641.52512	252.54992	1624.94827	-1765.58502	127.53456	1610.48111	-1766.50101	280.17096	1361.11008	-1708.64441	139.00146	1360.35721	-1701.30615	269.66805	1426.73721	-1816.37482	118.77175	1432.51129	-1800.20721	188.20684	1281.25916	-1889.33762	207.42426	1285.73883	-1663.42255	206.45838	1196.92986	-1628.89557	392.27619	1390.25879	-1779.50302	431.88972	1173.84369	-1799.68323	416.87336	1065.0666	-1821.53076	448.27774	959.83543	-1796.05591	388.83183	819.00192	-1730.75348	453.37807	813.16399	-1772.41379	452.94991	769.99908	-1724.38004	28.31277	1395.92758	-1754.50775	-7.64936	1170.99815	-1829.81445	-38.81671	1070.46501	-1794.56451	-32.36137	957.32185	-1809.54742	-59.74766	818.46138	-1770.56152	-74.99471	775.9919	-1720.11963	323.84308	951.25984	-1699.2984	45.35035	967.92358	-1692.63367	263.55324	1016.2645	-1863.50845	84.5886	1027.13341	-1863.94653	295.71207	691.83197	-1920.8461	297.21037	507.5367	-1895.94223	-21.72177	826.88522	-1709.68857	292.07275	319.22556	-1973.965	284.83223	165.82464	-2087.48962	245.42978	139.42468	-2162.79266	257.41453	82.03139	-1977.31232	25.2186	700.43022	-1813.12302	55.31588	560.18471	-1683.90717	113.95082	375.30159	-1666.60492	79.35099	117.8054	-1665.92499	91.34636	74.37439	-1538.38531	130.12456	57.32465	-1726.54053
70	3.8	242.89288	1626.38519	-1617.97653	112.71689	1612.00897	-1624.66583	246.17056	1628.78403	-1749.66415	121.26764	1613.53622	-1749.74365	275.36793	1365.47592	-1690.90424	133.79051	1365.20706	-1682.91885	264.39342	1428.71674	-1799.8027	113.81701	1434.67682	-1783.43048	182.67086	1281.81885	-1869.75372	202.65846	1290.98419	-1644.11148	201.8421	1202.77283	-1608.01086	387.18906	1393.42072	-1762.70874	427.21813	1176.73439	-1779.19189	411.07769	1067.67349	-1799.98657	441.39309	962.34367	-1772.68295	380.61714	823.25943	-1705.28244	445.2047	816.17882	-1746.43127	443.75816	773.38333	-1697.98065	23.15024	1399.26025	-1737.05109	-10.12081	1173.60558	-1811.34277	-42.71646	1072.92686	-1775.03906	-36.55528	959.32556	-1785.99396	-64.36043	821.66756	-1742.9512	-81.45307	781.61179	-1691.41174	320.24422	954.00627	-1678.68286	42.05026	969.31709	-1668.15872	256.80386	1018.38821	-1842.23114	78.4426	1029.52438	-1839.74518	289.95808	691.80023	-1897.37595	295.26413	507.86396	-1869.28635	-28.06147	832.47269	-1681.37527	291.07574	321.26637	-1955.72449	286.42624	173.84363	-2077.26318	247.88694	152.13725	-2154.1626	257.52829	80.92684	-1973.55469	19.75912	704.96887	-1795.18555	52.06609	559.87591	-1670.01892	112.13242	375.12821	-1658.46237	79.39893	117.28061	-1664.22272	91.91179	73.68163	-1537.57965	130.11549	57.58243	-1726.32965
